<svg xmlns="http://www.w3.org/2000/svg" xmlns:xlink="http://www.w3.org/1999/xlink" version="1.1" x="0px" y="0px" viewBox="0 0 100 100" enable-background="new 0 0 100 100" xml:space="preserve"><path fill="#000000" d="M93.5,47.8l0-0.2c0-0.2-0.1-0.3-0.1-0.5c-4.6-19.9-21.4-34-41.3-34.9v-3c0-1.1-0.9-2-2-2s-2,0.9-2,2v3  C28,13.2,11.2,27.4,6.6,47.4c0,0,0,0,0,0l-0.1,0.4c0,0.1,0,0.3,0,0.4c0,0.9,0.6,1.7,1.6,2c0.1,0,0.3,0,0.4,0c0.9,0,1.7-0.6,2-1.6  l0,0c0.1-0.2,0.2-0.3,0.3-0.5c0.1-0.2,0.2-0.3,0.3-0.5c0.1-0.2,0.3-0.4,0.4-0.5c0.1-0.1,0.2-0.3,0.4-0.4c0.2-0.2,0.3-0.3,0.5-0.5  c0.1-0.1,0.3-0.2,0.4-0.4c0.2-0.1,0.4-0.3,0.6-0.4c0.2-0.1,0.3-0.2,0.5-0.3c0.2-0.1,0.4-0.2,0.7-0.3c0.2-0.1,0.3-0.2,0.5-0.2  c0.2-0.1,0.5-0.2,0.7-0.2c0.2-0.1,0.3-0.1,0.5-0.2c0.3-0.1,0.6-0.1,0.9-0.2c0.1,0,0.3-0.1,0.4-0.1c0.4-0.1,0.9-0.1,1.4-0.1  c3.6,0,7,1.9,8.6,4.8c0,0,0,0.1,0.1,0.1c0,0.1,0.1,0.2,0.2,0.2c0,0,0,0,0.1,0.1c0,0,0.1,0.1,0.1,0.1c0,0,0.1,0.1,0.1,0.1  c0.1,0,0.1,0.1,0.2,0.1c0,0,0.1,0,0.1,0.1c0,0,0,0,0,0c0,0,0,0,0,0c0.1,0.1,0.2,0.1,0.4,0.1c0,0,0,0,0,0c0,0,0,0,0.1,0  c0,0,0.1,0,0.1,0c0.1,0,0.1,0,0.2,0c0,0,0.1,0,0.1,0c0,0,0,0,0.1,0s0,0,0.1,0c0,0,0.1,0,0.1,0c0.1,0,0.1,0,0.2,0c0,0,0.1,0,0.1,0  c0,0,0,0,0.1,0c0,0,0,0,0,0c0.1,0,0.2-0.1,0.4-0.2c0,0,0,0,0,0c0,0,0,0,0,0c0,0,0.1,0,0.1-0.1c0.1,0,0.1-0.1,0.2-0.1  c0,0,0.1-0.1,0.1-0.1c0,0,0.1-0.1,0.1-0.1c0,0,0,0,0.1-0.1c0.1-0.1,0.1-0.2,0.2-0.2c0,0,0-0.1,0.1-0.1c1.6-2.9,4.9-4.8,8.6-4.8  c3.5,0,6.7,1.7,8.3,4.4v36.9c0,1.9-1.6,3.5-3.5,3.5S41,87.2,41,85.2c0-1.1-0.9-2-2-2s-2,0.9-2,2c0,4.1,3.4,7.5,7.5,7.5  s7.5-3.4,7.5-7.5V48.3c1.6-2.7,4.9-4.4,8.3-4.4c3.6,0,7,1.9,8.6,4.8c0,0,0,0,0,0c0.1,0.1,0.2,0.3,0.3,0.4c0,0,0,0,0,0.1  c0,0,0,0,0.1,0.1c0.1,0.1,0.2,0.2,0.3,0.2c0,0,0,0,0.1,0.1c0,0,0,0,0,0c0,0,0,0,0,0c0.1,0.1,0.3,0.1,0.4,0.2c0,0,0,0,0,0  c0,0,0,0,0.1,0c0.1,0,0.3,0,0.4,0.1c0,0,0,0,0.1,0c0,0,0.1,0,0.1,0c0.1,0,0.2,0,0.3,0c0,0,0.1,0,0.1,0c0,0,0,0,0,0  c0.1,0,0.3-0.1,0.4-0.2c0,0,0,0,0,0c0,0,0,0,0,0c0,0,0.1,0,0.1-0.1c0.1,0,0.1-0.1,0.2-0.1c0,0,0.1-0.1,0.1-0.1c0,0,0.1-0.1,0.1-0.1  c0,0,0,0,0.1-0.1c0.1-0.1,0.1-0.2,0.2-0.2c0,0,0-0.1,0.1-0.1c1.6-2.9,4.9-4.8,8.6-4.8c0.5,0,0.9,0,1.4,0.1c0.1,0,0.3,0.1,0.4,0.1  c0.3,0.1,0.6,0.1,0.9,0.2c0.2,0,0.3,0.1,0.5,0.2c0.3,0.1,0.5,0.2,0.7,0.2c0.2,0.1,0.3,0.2,0.5,0.2c0.2,0.1,0.5,0.2,0.7,0.3  c0.2,0.1,0.3,0.2,0.5,0.3c0.2,0.1,0.4,0.3,0.6,0.4c0.1,0.1,0.3,0.2,0.4,0.4c0.2,0.2,0.4,0.3,0.5,0.5c0.1,0.1,0.2,0.3,0.4,0.4  c0.2,0.2,0.3,0.3,0.4,0.5c0.1,0.1,0.2,0.3,0.3,0.5c0.1,0.2,0.2,0.3,0.3,0.5l0,0c0.2,0.9,1,1.6,2,1.6c0.1,0,0.3,0,0.4,0  c0.9-0.2,1.6-1,1.6-2C93.5,48.1,93.5,48,93.5,47.8z M87.2,41.3c0,0-0.1,0-0.1-0.1c-0.4-0.2-0.8-0.4-1.3-0.5c0,0-0.1,0-0.1,0  c-0.4-0.2-0.9-0.3-1.4-0.4c-0.1,0-0.2,0-0.3-0.1c-0.5-0.1-0.9-0.2-1.4-0.2c-0.1,0-0.2,0-0.2,0c-0.5,0-1-0.1-1.5-0.1  c-0.5,0-0.9,0-1.3,0.1c-0.1,0-0.2,0-0.3,0c-0.4,0-0.9,0.1-1.3,0.2c-0.1,0-0.1,0-0.2,0c-0.4,0.1-0.8,0.2-1.1,0.3  c-0.1,0-0.2,0-0.2,0.1c-0.4,0.1-0.8,0.3-1.2,0.4c-0.1,0-0.2,0.1-0.2,0.1c-0.4,0.2-0.7,0.3-1,0.5c0,0-0.1,0-0.1,0.1  c-0.4,0.2-0.7,0.4-1.1,0.7c-0.1,0.1-0.2,0.1-0.2,0.2c-0.1,0-0.1,0.1-0.2,0.1c-0.3-5.8-2.2-17.1-12-25C72.3,21,82.3,29.7,87.2,41.3z   M17.5,40c-0.1,0-0.2,0-0.2,0c-0.5,0.1-0.9,0.1-1.4,0.2c-0.1,0-0.2,0-0.3,0.1c-0.5,0.1-0.9,0.2-1.4,0.4c0,0-0.1,0-0.1,0  c-0.4,0.2-0.8,0.3-1.3,0.5c0,0-0.1,0-0.1,0c4.9-11.5,14.8-20.2,26.6-23.6c-9.7,7.9-11.6,19.1-11.9,24.9c0,0-0.1-0.1-0.1-0.1  c-0.1-0.1-0.2-0.1-0.2-0.2c-0.3-0.2-0.7-0.5-1.1-0.7c0,0-0.1-0.1-0.1-0.1c-0.3-0.2-0.7-0.4-1-0.5c-0.1,0-0.2-0.1-0.2-0.1  c-0.4-0.2-0.8-0.3-1.2-0.4c-0.1,0-0.2,0-0.2-0.1c-0.4-0.1-0.7-0.2-1.1-0.3c-0.1,0-0.1,0-0.2,0c-0.4-0.1-0.9-0.1-1.3-0.2  c-0.1,0-0.2,0-0.3,0c-0.4,0-0.9-0.1-1.3-0.1C18.5,39.9,18,39.9,17.5,40z M38.3,40c-0.1,0-0.2,0-0.3,0c-0.4,0-0.9,0.1-1.3,0.2  c-0.1,0-0.1,0-0.2,0c-0.4,0.1-0.8,0.2-1.1,0.3c-0.1,0-0.2,0-0.2,0.1c-0.4,0.1-0.8,0.3-1.2,0.4c-0.1,0-0.2,0.1-0.2,0.1  c-0.4,0.2-0.7,0.3-1,0.5c0,0-0.1,0-0.1,0.1c-0.4,0.2-0.7,0.4-1.1,0.7c0,0-0.1,0-0.1,0.1c0.4-6.2,2.8-18.9,16.6-25.4v25.5  c-0.1-0.1-0.1-0.1-0.2-0.2c-0.3-0.2-0.7-0.5-1.1-0.7c0,0-0.1-0.1-0.1-0.1c-0.3-0.2-0.7-0.4-1-0.5c-0.1,0-0.2-0.1-0.2-0.1  c-0.4-0.2-0.8-0.3-1.2-0.4c-0.1,0-0.2,0-0.2-0.1c-0.4-0.1-0.7-0.2-1.1-0.3c-0.1,0-0.1,0-0.2,0c-0.4-0.1-0.9-0.1-1.3-0.2  c-0.1,0-0.2,0-0.3,0c-0.4,0-0.9-0.1-1.3-0.1S38.8,39.9,38.3,40z M59,40c-0.1,0-0.2,0-0.3,0c-0.4,0-0.9,0.1-1.3,0.2  c-0.1,0-0.1,0-0.2,0c-0.4,0.1-0.8,0.2-1.1,0.3c-0.1,0-0.2,0-0.2,0.1c-0.4,0.1-0.8,0.3-1.2,0.4c-0.1,0-0.2,0.1-0.2,0.1  c-0.4,0.2-0.7,0.3-1,0.5c0,0-0.1,0-0.1,0.1c-0.4,0.2-0.7,0.4-1.1,0.7c-0.1,0.1-0.1,0.1-0.2,0.2V17.1c13.8,6.5,16.2,19.1,16.5,25.3  c0,0,0,0-0.1,0c-0.3-0.2-0.7-0.5-1.1-0.7c0,0-0.1-0.1-0.1-0.1c-0.3-0.2-0.7-0.4-1-0.5c-0.1,0-0.2-0.1-0.2-0.1  c-0.4-0.2-0.8-0.3-1.2-0.4c-0.1,0-0.2,0-0.2-0.1c-0.4-0.1-0.7-0.2-1.1-0.3c-0.1,0-0.1,0-0.2,0c-0.4-0.1-0.9-0.1-1.3-0.2  c-0.1,0-0.2,0-0.3,0c-0.4,0-0.9-0.1-1.3-0.1S59.4,39.9,59,40z"></path></svg>